<svg xmlns="http://www.w3.org/2000/svg" width="116.6" height="99.986" viewBox="0 0 116.6 99.986">
  <g id="Grupo_17" data-name="Grupo 17" transform="translate(3815.232 -2733.322)">
    <g id="Grupo_10" data-name="Grupo 10" transform="translate(-3815.232 2733.322)">
      <g id="Grupo_2" data-name="Grupo 2" transform="translate(0 0)">
        <g id="Grupo_1" data-name="Grupo 1">
          <path id="Trazado_1" data-name="Trazado 1" d="M-3809.372,2748.656c-1.578-7.693,17.548-10.437,22.234-3.066l1.246,1.5c1.3-.881,4.085-.73,3.405-1.489-11.8-13.164-11.4,8.572-16.471,6.861-3.912-1.319,1.31-11.873,7.7-13.225,7.168-1.515,11.384,8.289,14.4,9.969,4.9,2.725,10.553-2.328,11.966-.873,1.69,1.741-1.4,9.141-6.228,12.347-.015,1.591-1.3,8.911,1.437,11.755,0,0-11.657,6.145-19.4,4.422-.413-.774.237-3.919.577-6.814a15.659,15.659,0,0,0-.309-5.342c-.171-.742-.574-2.33-.626-2.545-1.746-7.3.34-11.557,2.055-14.082-4.737-6.969-10.222-4.546-14.157-2C-3803.65,2747.444-3808.848,2751.21-3809.372,2748.656Z" transform="translate(3809.756 -2738.79)" fill="#8c5440"/>
          <path id="Trazado_2" data-name="Trazado 2" d="M-3791.518,2771.99a14.212,14.212,0,0,1-3.093-.316l-.131-.029-.063-.118c-.328-.614-.129-2.148.222-4.6.112-.783.229-1.592.321-2.385a15.312,15.312,0,0,0-.3-5.243c-.121-.526-.363-1.49-.507-2.067-.06-.238-.1-.414-.118-.476-1.743-7.283.256-11.55,1.985-14.148a9.565,9.565,0,0,0-4.806-3.953,28.977,28.977,0,0,0-1.934,3.8c-1.276,2.839-2.481,5.521-4.584,4.813-1.078-.364-1.625-1.378-1.538-2.855a11.582,11.582,0,0,1,1.911-5.076,21.414,21.414,0,0,0-2.7,1.51c-.209.135-.449.294-.71.467-2.7,1.787-5.441,3.486-6.821,2.917a1.269,1.269,0,0,1-.755-.989c-.541-2.639,1.2-4.981,4.767-6.426a20.129,20.129,0,0,1,9.441-1.206,9.754,9.754,0,0,1,4.137-2.128c5.137-1.084,8.822,3.46,11.513,6.779a14.362,14.362,0,0,0,3.095,3.22c2.833,1.576,6.014.412,8.338-.438,1.677-.613,3-1.1,3.695-.383a2.841,2.841,0,0,1,.515,2.312c-.33,3.069-3.077,7.944-6.665,10.4-.012.283-.048.674-.091,1.147-.236,2.593-.726,7.989,1.45,10.246l.27.28-.344.181a53.137,53.137,0,0,1-6.838,2.875A30.744,30.744,0,0,1-3791.518,2771.99Zm-2.816-.853c6.825,1.419,16.783-3.3,18.717-4.26-2.066-2.577-1.588-7.834-1.354-10.411.05-.555.09-.993.093-1.255v-.155l.129-.086c3.513-2.333,6.214-7.084,6.533-10.058a2.318,2.318,0,0,0-.354-1.842c-.43-.443-1.656.005-3.075.525-2.429.889-5.755,2.106-8.822.4a14.546,14.546,0,0,1-3.264-3.364c-2.74-3.38-6.15-7.587-10.938-6.574a8.909,8.909,0,0,0-3.472,1.66,15.974,15.974,0,0,1,3.181.813,3.936,3.936,0,0,1,1.913-.9c2.029-.316,4.418,1.094,7.3,4.31a.543.543,0,0,1,.157.551c-.126.385-.677.5-1.511.678a6.444,6.444,0,0,0-2.1.7l-.219.148-1.436-1.734a8.229,8.229,0,0,0-4-3.059,7.015,7.015,0,0,0-.807.932,10.53,10.53,0,0,1,5.054,4.291l.111.164-.111.164c-1.691,2.49-3.739,6.635-2.012,13.851.015.061.058.235.117.469.145.578.386,1.546.509,2.077a15.894,15.894,0,0,1,.314,5.442c-.094.8-.21,1.614-.323,2.4A16.564,16.564,0,0,0-3794.334,2771.137Zm-8.885-32.185a11.715,11.715,0,0,0-2.263,5.5,2.031,2.031,0,0,0,1.142,2.269c1.6.541,2.65-1.8,3.865-4.5a31.1,31.1,0,0,1,1.876-3.724A8.123,8.123,0,0,0-3803.22,2738.952Zm.015-2.85a18.922,18.922,0,0,0-6.945,1.259c-3.284,1.329-4.892,3.43-4.413,5.767h0a.68.68,0,0,0,.406.566c1.208.5,4.5-1.689,6.276-2.863.264-.175.505-.335.716-.471a19.9,19.9,0,0,1,3.61-1.9,16.038,16.038,0,0,1,2-2.286C-3802.1,2736.124-3802.653,2736.1-3803.205,2736.1Zm10.827,3.847,1.073,1.294a7.953,7.953,0,0,1,2.083-.645,5.731,5.731,0,0,0,1.034-.276c-2.737-3.051-4.949-4.4-6.77-4.115a3.224,3.224,0,0,0-1.375.578A8.7,8.7,0,0,1-3792.378,2739.949Zm-8.419-3.7a14.562,14.562,0,0,0-1.807,1.887,9.124,9.124,0,0,1,2.368-.386,7.3,7.3,0,0,1,1.983.226,8.429,8.429,0,0,1,.794-.978A16.314,16.314,0,0,0-3800.8,2736.246Z" transform="translate(3815.232 -2733.322)" fill="#3f2f31"/>
        </g>
      </g>
      <g id="Grupo_4" data-name="Grupo 4" transform="translate(0.557 2.769)">
        <g id="Grupo_3" data-name="Grupo 3">
          <path id="Trazado_3" data-name="Trazado 3" d="M-3804.074,2795.255c-1.751-7.136,17.351-10.419,22.217-2.187,0,0,.691.81.894,1.116.033.049-.905.686-1,.547-4.447-6.589-9.454-5.4-13.367-3.078C-3797.448,2793.023-3803.592,2797.218-3804.074,2795.255Z" transform="translate(3804.187 -2788.221)" fill="#8c5440"/>
        </g>
      </g>
      <g id="Grupo_5" data-name="Grupo 5" transform="translate(0.309 1.502)" opacity="0.22">
        <path id="Trazado_4" data-name="Trazado 4" d="M-3778.768,2796.429c-10.822-22.17-5.75-25.263-4.3-26.025a.435.435,0,0,0,.111-.06,1.1,1.1,0,0,1,.667-.168c.95.061,2.5-.425,1.667-1.527-2.091-2.771-5.2-5.88-8.614-5.509-2.293.25-2.789,1.1-2.989,1.284,0,0,1.245.531,1.412.324,2.422-3.007,10.584,3.793,8.5,4.427a6.017,6.017,0,0,0-3.614,1.513c-4.827-6.217-9.187-6.4-15.7-4.159-2.143.738-3.022.634-4.191-.376-1.66.747-4.237,3.806-2.935,5.6.677.934,2.033.163,3.033-.41,11.037-6.326,14.075-7.216,18.717-.387a17.838,17.838,0,0,0-1.871,14.71c.12.406.271,1.172.442,1.918a15.65,15.65,0,0,1,.309,5.34c-.34,2.9-.99,6.041-.577,6.815,7.74,1.724,14.748-2.176,14.748-2.176C-3777.03,2795.89-3778.1,2797.8-3778.768,2796.429Z" transform="translate(3809.107 -2763.111)" fill="#1d0810"/>
      </g>
      <g id="Grupo_6" data-name="Grupo 6" transform="translate(9.645 4.611)" opacity="0.22">
        <path id="Trazado_5" data-name="Trazado 5" d="M-3620.979,2829.359c-1.288,2.42-1.95,1.463-2.579.231-.907.557-.326,4.036.7,4.22,1.134.2,2.717-1.661,3.292-2.659C-3615.185,2823.558-3617.283,2822.413-3620.979,2829.359Z" transform="translate(3624.008 -2824.747)" fill="#1d0810"/>
      </g>
      <g id="Grupo_7" data-name="Grupo 7" transform="translate(41.095 9.283)">
        <path id="Trazado_6" data-name="Trazado 6" d="M-2991.251,2923.455a3.232,3.232,0,0,1-.2,3.682c-.887.962-3.94-2-3.053-2.964S-2991.583,2922.877-2991.251,2923.455Z" transform="translate(2994.958 -2922.878)" fill="#3f2f31"/>
        <path id="Trazado_7" data-name="Trazado 7" d="M-2997.423,2922.117a1.432,1.432,0,0,1-.313-.037,4.468,4.468,0,0,1-2.652-2.523,1.041,1.041,0,0,1,.164-1.083,3.9,3.9,0,0,1,2.936-1.083.956.956,0,0,1,.788.416h0a3.515,3.515,0,0,1-.241,4.026A.892.892,0,0,1-2997.423,2922.117Zm-.133-4.156a3.4,3.4,0,0,0-2.239.909.515.515,0,0,0-.035.514,3.888,3.888,0,0,0,2.223,2.127c.306.069.4-.038.437-.073a2.961,2.961,0,0,0,.164-3.339c-.021-.035-.116-.1-.347-.127A1.829,1.829,0,0,0-2997.555,2917.961Z" transform="translate(3000.461 -2917.377)" fill="#3f2f31"/>
      </g>
      <g id="Grupo_8" data-name="Grupo 8" transform="translate(28.52 10.397)">
        <path id="Trazado_8" data-name="Trazado 8" d="M-3249.308,2942.3a3.147,3.147,0,0,1-.459-1.353,2.026,2.026,0,0,1,.065-.771.994.994,0,0,1,.615-.683,1,1,0,0,1,.894.22,2.041,2.041,0,0,1,.487.6,3.143,3.143,0,0,1,.379,1.378,10.976,10.976,0,0,0-.756-1.124,2.153,2.153,0,0,0-.437-.411.511.511,0,0,0-.4-.107.506.506,0,0,0-.267.31,2.144,2.144,0,0,0-.132.586A10.782,10.782,0,0,0-3249.308,2942.3Z" transform="translate(3249.779 -2939.456)" fill="#3f2f31"/>
      </g>
      <g id="Grupo_9" data-name="Grupo 9" transform="translate(24.259 11.709)">
        <path id="Trazado_9" data-name="Trazado 9" d="M-3333.715,2968.394a2.985,2.985,0,0,1-.528-1.381,1.877,1.877,0,0,1,.078-.8,1.278,1.278,0,0,1,.219-.4,1.059,1.059,0,0,1,.4-.289,1.062,1.062,0,0,1,.491-.051,1.294,1.294,0,0,1,.427.149,1.888,1.888,0,0,1,.593.546,2.974,2.974,0,0,1,.525,1.382,7.807,7.807,0,0,0-.87-1.084c-.305-.3-.71-.5-.957-.4-.255.086-.424.5-.45.934A7.706,7.706,0,0,0-3333.715,2968.394Z" transform="translate(3334.256 -2965.467)" fill="#3f2f31"/>
      </g>
    </g>
    <path id="Trazado_10" data-name="Trazado 10" d="M-3709.951,2977.448c-1.854-10.09,3.495-28.739,24.148-27.14,22.178,1.717,24.007-37.859,64.793-23.358,33.762,12,24.981,68.3-1.28,79.505C-3645.393,3016.309-3701.255,3024.773-3709.951,2977.448Z" transform="translate(-99.646 -180.823)" fill="#fff"/>
    <path id="Trazado_11" data-name="Trazado 11" d="M-3669.839,3006.689c-1.789-9.737,3.372-27.734,23.3-26.191,21.4,1.657,23.168-36.535,62.527-22.541,32.582,11.584,24.107,65.915-1.236,76.725C-3607.539,3044.191-3661.448,3052.359-3669.839,3006.689Z" transform="translate(-137.746 -210.373)" fill="#f35931"/>
    <g id="Grupo_13" data-name="Grupo 13" transform="translate(-3788.26 2765.889)">
      <g id="Grupo_11" data-name="Grupo 11" transform="translate(0 0)">
        <path id="Trazado_12" data-name="Trazado 12" d="M-3272.527,3387.558h2.672a2.439,2.439,0,0,1,1.78.677,10.923,10.923,0,0,1,1.351,1.9c1.157,2.011,3.537,2.786,4.766,1.029a1.523,1.523,0,0,0,.265-.687c.264-1.9-2.251-5-4.738-5.557h-.007a1.74,1.74,0,0,0-.221-.046C-3269.554,3384.411-3272.162,3386.422-3272.527,3387.558Z" transform="translate(3272.927 -3384.518)" fill="#8c5440"/>
        <path id="Trazado_13" data-name="Trazado 13" d="M-3271.29,3386.938l-.115,0a4,4,0,0,1-3.108-2.15,10.738,10.738,0,0,0-1.314-1.854,2.169,2.169,0,0,0-1.563-.582h-3.073l.122-.381c.407-1.267,3.132-3.371,6.191-2.878a1.876,1.876,0,0,1,.228.046l.018,0c2.569.574,5.259,3.762,4.963,5.882a1.812,1.812,0,0,1-.317.817A2.433,2.433,0,0,1-3271.29,3386.938Zm-8.3-5.172h2.2a2.726,2.726,0,0,1,1.995.772,11.334,11.334,0,0,1,1.388,1.957,3.466,3.466,0,0,0,2.628,1.859,1.843,1.843,0,0,0,1.646-.851,1.241,1.241,0,0,0,.215-.562c.269-1.928-2.431-4.744-4.481-5.223l-.055-.011a1.25,1.25,0,0,0-.182-.037,5.791,5.791,0,0,0-3.7.7A4.916,4.916,0,0,0-3279.586,3381.765Z" transform="translate(3280.463 -3379.017)" fill="#3f2f31"/>
      </g>
      <g id="Grupo_12" data-name="Grupo 12" transform="translate(0.4 0.292)" opacity="0.18">
        <path id="Trazado_14" data-name="Trazado 14" d="M-3272.527,3387.558h2.672a2.439,2.439,0,0,1,1.78.677,10.923,10.923,0,0,1,1.351,1.9c1.157,2.011,3.537,2.786,4.766,1.029a1.523,1.523,0,0,0,.265-.687,6.326,6.326,0,0,1-1.179.315,1.482,1.482,0,0,1-1.279-.708c-.228-.377-.293-.79-.514-1.167-.808-1.365-3.773-2.368-1.88-3.917.036-.031.072-.056.107-.081a1.74,1.74,0,0,0-.221-.046C-3269.554,3384.411-3272.162,3386.422-3272.527,3387.558Z" transform="translate(3272.527 -3384.81)" fill="#1d0810"/>
      </g>
    </g>
    <g id="Grupo_16" data-name="Grupo 16" transform="translate(-3775.369 2763.501)">
      <g id="Grupo_14" data-name="Grupo 14" transform="translate(0 0)">
        <path id="Trazado_15" data-name="Trazado 15" d="M-3016.984,3340.228h2.672a2.423,2.423,0,0,1,1.772.677,10.963,10.963,0,0,1,1.351,1.905c1.157,2.012,3.544,2.786,4.773,1.029a.421.421,0,0,0,.043-.076c.943-1.538-1.122-4.67-3.537-5.821a4.591,4.591,0,0,0-1.215-.393C-3014.019,3337.08-3016.626,3339.092-3016.984,3340.228Z" transform="translate(3017.382 -3337.187)" fill="#8c5440"/>
        <path id="Trazado_16" data-name="Trazado 16" d="M-3015.707,3339.6l-.116,0a4,4,0,0,1-3.113-2.15,10.686,10.686,0,0,0-1.314-1.854,2.136,2.136,0,0,0-1.556-.581h-3.071l.12-.379c.4-1.268,3.12-3.375,6.185-2.879a4.908,4.908,0,0,1,1.292.416,7.645,7.645,0,0,1,3.791,4.251,2.446,2.446,0,0,1-.115,1.963.527.527,0,0,1-.045.082l-.021.033A2.44,2.44,0,0,1-3015.707,3339.6Zm-8.3-5.173h2.2a2.694,2.694,0,0,1,1.989.774,11.289,11.289,0,0,1,1.387,1.955,3.468,3.468,0,0,0,2.632,1.858,1.839,1.839,0,0,0,1.643-.842l.014-.023.025-.048a1.932,1.932,0,0,0,.068-1.516,7.119,7.119,0,0,0-3.482-3.889,4.326,4.326,0,0,0-1.136-.367A5.9,5.9,0,0,0-3024,3334.428Z" transform="translate(3024.875 -3331.679)" fill="#3f2f31"/>
      </g>
      <g id="Grupo_15" data-name="Grupo 15" transform="translate(0.575 0.185)" opacity="0.18">
        <path id="Trazado_17" data-name="Trazado 17" d="M-3013.481,3338.093h2.673a2.421,2.421,0,0,1,1.772.677,10.87,10.87,0,0,1,1.351,1.9c1.157,2.011,3.544,2.786,4.773,1.029a.426.426,0,0,0,.043-.077,2.315,2.315,0,0,1-1.629-.188,1.752,1.752,0,0,1-.322-.367q-1.179-1.711-2.365-3.423c-1.021-1.472-.093-1.543.779-1.844a4.607,4.607,0,0,0-1.215-.392C-3010.516,3334.945-3013.124,3336.958-3013.481,3338.093Z" transform="translate(3013.481 -3335.344)" fill="#1d0810"/>
      </g>
    </g>
    <text id="Casa_de" data-name="Casa de" transform="translate(-3792.417 2789.041)" fill="#fff" font-size="19" font-family="BaileywickJFGothic-Regular, BaileywickJFGothic"><tspan x="0" y="0">Casa de</tspan></text>
    <text id="Perros" transform="translate(-3791.217 2813.482)" fill="#fff" font-size="24" font-family="BaileywickJFGothic-Regular, BaileywickJFGothic"><tspan x="0" y="0">Perros</tspan></text>
  </g>
</svg>
