<svg id="Grupo_3975" data-name="Grupo 3975" xmlns="http://www.w3.org/2000/svg" xmlns:xlink="http://www.w3.org/1999/xlink" width="116.605" height="99.989" viewBox="0 0 116.605 99.989">
  <defs>
    <clipPath id="clip-path">
      <rect id="Rectángulo_28" data-name="Rectángulo 28" width="116.605" height="99.989" fill="none"/>
    </clipPath>
    <clipPath id="clip-path-3">
      <rect id="Rectángulo_23" data-name="Rectángulo 23" width="35.156" height="37.069" transform="translate(0.311 1.503)" fill="none"/>
    </clipPath>
    <clipPath id="clip-path-4">
      <rect id="Rectángulo_24" data-name="Rectángulo 24" width="6.902" height="9.077" transform="translate(9.649 4.614)" fill="none"/>
    </clipPath>
    <clipPath id="clip-path-5">
      <rect id="Rectángulo_25" data-name="Rectángulo 25" width="10.834" height="7.336" transform="translate(27.376 32.857)" fill="none"/>
    </clipPath>
    <clipPath id="clip-path-6">
      <rect id="Rectángulo_26" data-name="Rectángulo 26" width="10.612" height="7.336" transform="translate(40.442 30.363)" fill="none"/>
    </clipPath>
  </defs>
  <g id="Grupo_3974" data-name="Grupo 3974" clip-path="url(#clip-path)">
    <g id="Grupo_3973" data-name="Grupo 3973">
      <g id="Grupo_3972" data-name="Grupo 3972" clip-path="url(#clip-path)">
        <path id="Trazado_2402" data-name="Trazado 2402" d="M.388,9.869C-1.19,2.176,17.936-.569,22.622,6.8l1.246,1.5c1.3-.881,4.085-.73,3.405-1.489-11.8-13.164-11.4,8.573-16.471,6.862C6.89,12.356,12.112,1.8,18.5.45c7.168-1.515,11.384,8.289,14.4,9.969,4.9,2.725,10.553-2.327,11.966-.873,1.69,1.741-1.4,9.141-6.228,12.346-.015,1.592-1.3,8.912,1.437,11.756,0,0-11.657,6.145-19.4,4.422-.413-.774.237-3.919.577-6.814a15.684,15.684,0,0,0-.309-5.342c-.171-.742-.574-2.33-.626-2.545-1.746-7.3.34-11.557,2.055-14.082-4.737-6.969-10.222-4.546-14.157-2C6.11,8.657.912,12.423.388,9.869" fill="#8c5440"/>
        <path id="Trazado_2403" data-name="Trazado 2403" d="M23.718,38.67a14.17,14.17,0,0,1-3.093-.315l-.131-.03-.063-.118c-.328-.614-.129-2.147.222-4.6.112-.783.229-1.593.321-2.386a15.3,15.3,0,0,0-.3-5.242c-.121-.527-.363-1.49-.507-2.068-.06-.237-.1-.414-.118-.475-1.743-7.283.256-11.551,1.985-14.149a9.573,9.573,0,0,0-4.806-3.953,29.13,29.13,0,0,0-1.934,3.8c-1.276,2.839-2.481,5.521-4.584,4.813-1.078-.364-1.625-1.378-1.538-2.855a11.574,11.574,0,0,1,1.911-5.076,21.3,21.3,0,0,0-2.7,1.51c-.209.135-.449.294-.71.467-2.7,1.788-5.441,3.486-6.821,2.916A1.266,1.266,0,0,1,.1,9.923C-.444,7.284,1.3,4.942,4.864,3.5A20.147,20.147,0,0,1,14.305,2.29,9.763,9.763,0,0,1,18.442.163c5.137-1.084,8.822,3.459,11.513,6.779a14.35,14.35,0,0,0,3.095,3.219c2.833,1.577,6.014.413,8.338-.437,1.677-.613,3-1.1,3.695-.383a2.841,2.841,0,0,1,.515,2.312c-.33,3.069-3.077,7.944-6.665,10.4-.012.282-.048.674-.091,1.147-.236,2.592-.727,7.989,1.45,10.246l.27.28-.344.181a53.276,53.276,0,0,1-6.838,2.875,30.749,30.749,0,0,1-9.662,1.888M20.9,37.818c6.825,1.419,16.783-3.3,18.717-4.26-2.066-2.577-1.588-7.834-1.354-10.411.05-.556.091-.993.093-1.255v-.155l.129-.086C42,19.318,44.7,14.567,45.02,11.593a2.32,2.32,0,0,0-.354-1.843c-.43-.442-1.656.005-3.075.526-2.429.888-5.755,2.1-8.822.4A14.534,14.534,0,0,1,29.5,7.312C26.765,3.931,23.356-.276,18.567.738A8.9,8.9,0,0,0,15.1,2.4a15.851,15.851,0,0,1,3.181.812,3.948,3.948,0,0,1,1.914-.9c2.028-.316,4.417,1.1,7.3,4.31a.545.545,0,0,1,.158.551c-.126.385-.678.5-1.512.678a6.48,6.48,0,0,0-2.1.7l-.219.149L22.38,6.963a8.228,8.228,0,0,0-4-3.058,7.018,7.018,0,0,0-.807.931,10.532,10.532,0,0,1,5.054,4.291l.111.164-.111.164c-1.69,2.491-3.739,6.635-2.012,13.851.015.061.058.235.117.47.145.577.386,1.546.509,2.077a15.883,15.883,0,0,1,.314,5.441c-.094.8-.21,1.614-.323,2.4a16.536,16.536,0,0,0-.33,4.123M12.017,5.632a11.723,11.723,0,0,0-2.263,5.5A2.032,2.032,0,0,0,10.9,13.4c1.6.541,2.649-1.8,3.864-4.5a31.127,31.127,0,0,1,1.876-3.725,8.126,8.126,0,0,0-4.621.455Zm.015-2.849A18.924,18.924,0,0,0,5.087,4.041C1.8,5.37.195,7.471.674,9.808a.679.679,0,0,0,.406.566c1.208.5,4.5-1.689,6.276-2.863.264-.175.5-.335.716-.471a19.927,19.927,0,0,1,3.61-1.9,15.975,15.975,0,0,1,2-2.285c-.546-.051-1.1-.074-1.651-.074ZM22.859,6.629l1.073,1.294a7.952,7.952,0,0,1,2.083-.644A5.866,5.866,0,0,0,27.049,7c-2.737-3.051-4.949-4.4-6.77-4.115a3.22,3.22,0,0,0-1.375.578,8.7,8.7,0,0,1,3.954,3.164Zm-8.419-3.7a14.586,14.586,0,0,0-1.807,1.887A9.1,9.1,0,0,1,15,4.43a7.287,7.287,0,0,1,1.983.227,8.385,8.385,0,0,1,.794-.979,16.3,16.3,0,0,0-3.342-.751Z" fill="#3f2f31"/>
        <path id="Trazado_2404" data-name="Trazado 2404" d="M.674,9.805C-1.077,2.669,18.025-.614,22.891,7.618c0,0,.691.81.894,1.117.033.049-.905.685-1,.547C18.338,2.693,13.331,3.881,9.418,6.2,7.3,7.574,1.156,11.769.674,9.805" fill="#8c5440"/>
        <g id="Grupo_3962" data-name="Grupo 3962" opacity="0.22">
          <g id="Grupo_3961" data-name="Grupo 3961">
            <g id="Grupo_3960" data-name="Grupo 3960" clip-path="url(#clip-path-3)">
              <path id="Trazado_2405" data-name="Trazado 2405" d="M30.652,34.823C19.83,12.653,24.9,9.56,26.352,8.8a.426.426,0,0,0,.111-.06,1.1,1.1,0,0,1,.667-.168c.95.061,2.5-.425,1.667-1.527-2.091-2.771-5.2-5.88-8.614-5.509-2.293.25-2.789,1.1-2.989,1.284,0,0,1.245.53,1.412.323,2.422-3.006,10.584,3.793,8.5,4.428a6.012,6.012,0,0,0-3.614,1.513c-4.827-6.217-9.187-6.4-15.7-4.159-2.143.738-3.022.633-4.191-.376-1.659.747-4.237,3.805-2.935,5.6.677.934,2.033.163,3.033-.41C14.736,3.411,17.774,2.521,22.416,9.35a17.843,17.843,0,0,0-1.871,14.71c.12.406.271,1.172.442,1.918a15.646,15.646,0,0,1,.309,5.34c-.34,2.9-.99,6.041-.577,6.815,7.74,1.724,14.748-2.176,14.748-2.176-3.077-1.673-4.147.237-4.815-1.134" fill="#1d0810"/>
            </g>
          </g>
        </g>
        <g id="Grupo_3965" data-name="Grupo 3965" opacity="0.22">
          <g id="Grupo_3964" data-name="Grupo 3964">
            <g id="Grupo_3963" data-name="Grupo 3963" clip-path="url(#clip-path-4)">
              <path id="Trazado_2406" data-name="Trazado 2406" d="M12.678,9.225c-1.288,2.42-1.95,1.463-2.579.231-.907.557-.326,4.037.7,4.22,1.134.2,2.717-1.661,3.292-2.659,4.381-7.593,2.283-8.737-1.413-1.792" fill="#1d0810"/>
            </g>
          </g>
        </g>
        <path id="Trazado_2407" data-name="Trazado 2407" d="M44.806,9.863a3.231,3.231,0,0,1-.2,3.682c-.887.962-3.94-2-3.053-2.964s2.921-1.3,3.253-.718" fill="#3f2f31"/>
        <path id="Trazado_2408" data-name="Trazado 2408" d="M44.137,14.026a1.439,1.439,0,0,1-.313-.037,4.468,4.468,0,0,1-2.652-2.523,1.042,1.042,0,0,1,.164-1.083A3.9,3.9,0,0,1,44.272,9.3a.958.958,0,0,1,.788.416,3.513,3.513,0,0,1-.241,4.026.891.891,0,0,1-.682.284M44,9.87a3.4,3.4,0,0,0-2.239.909.517.517,0,0,0-.035.514,3.889,3.889,0,0,0,2.223,2.127c.306.069.4-.038.437-.073a2.961,2.961,0,0,0,.164-3.339c-.021-.035-.116-.1-.347-.127a1.938,1.938,0,0,0-.2-.011Z" fill="#3f2f31"/>
        <path id="Trazado_2409" data-name="Trazado 2409" d="M29,13.244a3.142,3.142,0,0,1-.459-1.353,2.029,2.029,0,0,1,.065-.771.9.9,0,0,1,1.509-.463,2.048,2.048,0,0,1,.487.6,3.139,3.139,0,0,1,.379,1.378,11.036,11.036,0,0,0-.756-1.124,2.156,2.156,0,0,0-.437-.411.516.516,0,0,0-.4-.107.506.506,0,0,0-.267.311,2.087,2.087,0,0,0-.132.586A10.733,10.733,0,0,0,29,13.244" fill="#3f2f31"/>
        <path id="Trazado_2410" data-name="Trazado 2410" d="M24.8,14.639a2.983,2.983,0,0,1-.528-1.382,1.856,1.856,0,0,1,.078-.8,1.255,1.255,0,0,1,.219-.4,1.041,1.041,0,0,1,.4-.289,1.068,1.068,0,0,1,.492-.052,1.289,1.289,0,0,1,.426.15,1.888,1.888,0,0,1,.594.545,3,3,0,0,1,.525,1.382,7.892,7.892,0,0,0-.871-1.084c-.305-.3-.709-.5-.957-.4s-.424.5-.45.933a7.75,7.75,0,0,0,.073,1.395" fill="#3f2f31"/>
        <path id="Trazado_2411" data-name="Trazado 2411" d="M5.639,63.306C3.785,53.215,9.134,34.567,29.787,36.165,51.965,37.882,53.794-1.693,94.58,12.808c33.762,12,24.98,68.3-1.28,79.505C70.2,102.166,14.335,110.63,5.639,63.306" fill="#fff"/>
        <path id="Trazado_2412" data-name="Trazado 2412" d="M7.651,63c-1.789-9.737,3.372-27.733,23.3-26.19C52.351,38.463,54.119.271,93.478,14.266,126.06,25.85,117.585,80.18,92.242,90.99,69.951,100.5,16.042,108.667,7.651,63" fill="#f35931"/>
        <path id="Trazado_2413" data-name="Trazado 2413" d="M27.376,35.61h2.672a2.44,2.44,0,0,1,1.78.677,10.877,10.877,0,0,1,1.351,1.9c1.157,2.011,3.537,2.785,4.766,1.028a1.509,1.509,0,0,0,.265-.686c.264-1.9-2.251-5-4.738-5.557h-.007a1.635,1.635,0,0,0-.221-.046c-2.895-.463-5.5,1.548-5.868,2.684" fill="#8c5440"/>
        <path id="Trazado_2414" data-name="Trazado 2414" d="M36.149,40.491h-.115a4,4,0,0,1-3.108-2.151,10.683,10.683,0,0,0-1.314-1.853,2.163,2.163,0,0,0-1.563-.582H26.976l.122-.381c.407-1.267,3.132-3.371,6.191-2.878a1.77,1.77,0,0,1,.228.046h.018c2.569.573,5.259,3.762,4.963,5.882a1.8,1.8,0,0,1-.317.816,2.433,2.433,0,0,1-2.032,1.1m-8.3-5.172h2.2a2.728,2.728,0,0,1,1.995.771,11.322,11.322,0,0,1,1.388,1.958,3.469,3.469,0,0,0,2.628,1.859,1.845,1.845,0,0,0,1.646-.852,1.241,1.241,0,0,0,.215-.561c.269-1.929-2.431-4.744-4.481-5.224l-.055-.011a1.364,1.364,0,0,0-.182-.037,5.794,5.794,0,0,0-3.7.7,4.9,4.9,0,0,0-1.65,1.4Z" fill="#3f2f31"/>
        <g id="Grupo_3968" data-name="Grupo 3968" opacity="0.18">
          <g id="Grupo_3967" data-name="Grupo 3967">
            <g id="Grupo_3966" data-name="Grupo 3966" clip-path="url(#clip-path-5)">
              <path id="Trazado_2415" data-name="Trazado 2415" d="M27.376,35.61h2.672a2.44,2.44,0,0,1,1.78.677,10.877,10.877,0,0,1,1.351,1.9c1.157,2.011,3.537,2.785,4.766,1.028a1.509,1.509,0,0,0,.265-.686,6.212,6.212,0,0,1-1.179.314,1.477,1.477,0,0,1-1.279-.708c-.228-.377-.293-.79-.514-1.167-.808-1.364-3.773-2.367-1.88-3.917.037-.03.073-.055.107-.081a2.045,2.045,0,0,0-.22-.046c-2.9-.461-5.5,1.55-5.869,2.686" fill="#1d0810"/>
            </g>
          </g>
        </g>
        <path id="Trazado_2416" data-name="Trazado 2416" d="M40.265,33.223h2.672a2.424,2.424,0,0,1,1.772.677,10.915,10.915,0,0,1,1.351,1.9c1.157,2.012,3.544,2.785,4.773,1.028a.348.348,0,0,0,.043-.075c.943-1.538-1.122-4.67-3.537-5.821a4.608,4.608,0,0,0-1.215-.394c-2.894-.468-5.5,1.543-5.859,2.68" fill="#8c5440"/>
        <path id="Trazado_2417" data-name="Trazado 2417" d="M49.035,38.1h-.116a4,4,0,0,1-3.113-2.151A10.683,10.683,0,0,0,44.492,34.1a2.131,2.131,0,0,0-1.556-.581H39.865l.12-.379c.4-1.269,3.121-3.375,6.186-2.879a4.914,4.914,0,0,1,1.292.416,7.648,7.648,0,0,1,3.791,4.251,2.447,2.447,0,0,1-.116,1.963.47.47,0,0,1-.045.082l-.021.033a2.439,2.439,0,0,1-2.037,1.1m-8.3-5.173h2.2a2.7,2.7,0,0,1,1.989.773,11.21,11.21,0,0,1,1.387,1.956,3.472,3.472,0,0,0,2.632,1.858,1.839,1.839,0,0,0,1.643-.843l.014-.022.025-.048a1.933,1.933,0,0,0,.068-1.517A7.116,7.116,0,0,0,47.211,31.2a4.327,4.327,0,0,0-1.136-.368,5.9,5.9,0,0,0-5.333,2.1Z" fill="#3f2f31"/>
        <g id="Grupo_3971" data-name="Grupo 3971" opacity="0.18">
          <g id="Grupo_3970" data-name="Grupo 3970">
            <g id="Grupo_3969" data-name="Grupo 3969" clip-path="url(#clip-path-6)">
              <path id="Trazado_2418" data-name="Trazado 2418" d="M40.442,33.116h2.673a2.426,2.426,0,0,1,1.772.677,10.84,10.84,0,0,1,1.351,1.9c1.157,2.011,3.544,2.785,4.773,1.028a.4.4,0,0,0,.043-.076,2.312,2.312,0,0,1-1.629-.188,1.757,1.757,0,0,1-.322-.367q-1.179-1.711-2.365-3.423c-1.021-1.472-.093-1.543.779-1.844A4.68,4.68,0,0,0,46.3,30.43c-2.895-.462-5.5,1.551-5.86,2.686" fill="#1d0810"/>
            </g>
          </g>
        </g>
        <path id="Trazado_2419" data-name="Trazado 2419" d="M33.173,46.109a3.338,3.338,0,0,0-3.287-3.59c-2.127,0-3.78,1.406-3.78,5.7,0,4.313,1.8,5.68,3.648,5.717a3.232,3.232,0,0,0,3.172-2.412c.038,0,2.717.229,2.717.229-1.045,3.343-3.23,4.5-5.908,4.5-3.5,0-6.327-2.6-6.327-8.075,0-5.148,2.831-8.072,6.327-8.091a5.757,5.757,0,0,1,6.1,6.078c.019-.018-2.66-.057-2.66-.057" fill="#fff"/>
        <path id="Trazado_2420" data-name="Trazado 2420" d="M45.788,55.989a3.8,3.8,0,0,1-.968.151,2.175,2.175,0,0,1-1.862-1.008,3.808,3.808,0,0,1-2.716,1.142,3.011,3.011,0,0,1-3.192-2.907,2.651,2.651,0,0,1,2.926-2.773,4.33,4.33,0,0,1,2.583.76V49.207c0-1.2-.285-2.3-1.709-2.3-1.406,0-1.9,1.938-1.9,3.116h-2.3C36.632,47.23,38.1,44.742,41,44.742c3.059,0,4.161,1.918,4.047,4.844-.019.647-.057,1.559-.057,2.412,0,.59.019,1.16.057,1.6.076.742.4.76.74.76Zm-3.229-2.814a4.771,4.771,0,0,0-1.843-.587c-.892,0-1.082.4-1.082.892s.512.76,1.158.76a4.477,4.477,0,0,0,1.767-.76Z" fill="#fff"/>
        <path id="Trazado_2421" data-name="Trazado 2421" d="M50.312,56.064c-2.792,0-3.343-1.957-3.343-2.83V52.189h2.26v.949a.981.981,0,0,0,1.1.893c.7,0,1.045-.285,1.1-.78.038-.361-.019-.759-1.045-1.234L49,51.353a3.229,3.229,0,0,1-2.014-3.1c0-.209.019-.4.038-.607a3.315,3.315,0,0,1,3.287-3.039,3,3,0,0,1,3.04,3.228v.932H51.243v-.932a.96.96,0,0,0-.988-1.005,1.085,1.085,0,0,0-1.083.949c-.247,1.349,1.273,1.728,2.147,2.127,2.146.969,2.47,2.148,2.374,3.343-.113,1.237-.854,2.813-3.381,2.813" fill="#fff"/>
        <path id="Trazado_2422" data-name="Trazado 2422" d="M63.876,55.989a3.8,3.8,0,0,1-.968.151,2.175,2.175,0,0,1-1.862-1.008,3.808,3.808,0,0,1-2.716,1.142,3.011,3.011,0,0,1-3.192-2.907,2.651,2.651,0,0,1,2.926-2.773,4.33,4.33,0,0,1,2.583.76V49.207c0-1.2-.285-2.3-1.709-2.3-1.406,0-1.9,1.938-1.9,3.116h-2.3c-.019-2.794,1.444-5.282,4.35-5.282,3.059,0,4.161,1.918,4.047,4.844-.019.647-.057,1.559-.057,2.412,0,.59.019,1.16.057,1.6.076.742.4.76.74.76Zm-3.229-2.814a4.771,4.771,0,0,0-1.843-.587c-.892,0-1.082.4-1.082.892s.512.76,1.158.76a4.477,4.477,0,0,0,1.767-.76Z" fill="#fff"/>
        <path id="Trazado_2423" data-name="Trazado 2423" d="M76.93,56.444c.02-.17.02-1.063.038-1.255a2.86,2.86,0,0,1-1.767.647c-2.013.019-4.483-1.861-4.463-5.49.019-3.172,2.26-5.471,4.691-5.471a2.429,2.429,0,0,1,1.653.551c-.037-1.672-.075-3.344-.152-4.9h2.641c-.152,1.994-.21,4.615-.21,7.388,0,2.641.1,6.1.229,8.53Zm-1.6-9.728c-1.425.02-2.224,1.729-2.224,3.951,0,2.017,1.026,3.174,2.224,3.174a1.913,1.913,0,0,0,1.728-1.008c.039-1.4.057-2.981.057-4.614a1.87,1.87,0,0,0-1.785-1.5" fill="#fff"/>
        <path id="Trazado_2424" data-name="Trazado 2424" d="M85.765,50.194c-.893,0-1.785.019-2.527.058v.415c0,2.017,1.026,3.174,2.223,3.174,1.539,0,1.577-2.3,1.577-2.3l2.488.229A4.265,4.265,0,0,1,85.5,56.045c-2.451,0-4.654-2.07-4.635-5.7.019-3.42,1.9-5.736,4.73-5.736,3.324,0,3.989,3.342,4.027,5.7-1.025-.076-2.45-.115-3.856-.115m-.3-3.478c-.988,0-1.634.742-1.976,1.881.722.04,1.52.056,2.3.056.456,0,.911-.016,1.349-.016-.191-1.026-.647-1.921-1.672-1.921" fill="#fff"/>
        <path id="Trazado_2425" data-name="Trazado 2425" d="M32.636,72.051c-.624-.024-1.464-.024-2.28-.024-.6,0-1.176,0-1.656.024.048,2.785.12,5.592.264,8.113H25.627c.169-2.521.241-6.073.241-9.817-.024-3.121-.1-6.409-.241-9.384a25.444,25.444,0,0,0,2.9.143c1.536,0,3.12-.072,4.1-.168,2.52-.192,4.561,2.136,4.561,5.593,0,3.888-2.4,5.568-4.561,5.52m-1.224-8.233H28.8c-.048,1.681-.1,3.553-.1,5.5.264.024.648.048,1.032.048.6,0,1.248-.024,1.68-.048,1.632-.048,2.9-.528,2.928-2.833a2.7,2.7,0,0,0-2.928-2.664" fill="#fff"/>
        <path id="Trazado_2426" data-name="Trazado 2426" d="M43.675,73.18c-1.128,0-2.256.023-3.192.072v.527c0,2.545,1.3,4.009,2.809,4.009,1.943,0,1.991-2.9,1.991-2.9l3.145.288c-.073,2.568-2.017,5.4-5.089,5.4-3.1,0-5.881-2.616-5.857-7.2.025-4.32,2.4-7.248,5.977-7.248,4.2,0,5.041,4.225,5.088,7.2-1.3-.1-3.1-.143-4.872-.143m-.383-4.393c-1.249,0-2.065.937-2.5,2.376.912.048,1.92.072,2.9.072.576,0,1.152-.024,1.7-.024-.24-1.3-.816-2.424-2.111-2.424" fill="#fff"/>
        <path id="Trazado_2427" data-name="Trazado 2427" d="M56.563,72.675a23.662,23.662,0,0,0,.072-2.448c-.024-1.008-.744-1.393-1.392-1.177a3.88,3.88,0,0,0-2.208,2.593v1.68c.024,2.569.12,5.112.264,6.84H49.962c.144-1.488.24-4.128.24-6.767v-.77c0-2.255-.1-4.463-.24-5.9H53.3c-.049.48-.1,1.01-.144,1.56a3.683,3.683,0,0,1,2.976-1.847c2.184-.048,3.1,1.728,3.144,3.457a22.025,22.025,0,0,0,.192,2.783Z" fill="#fff"/>
        <path id="Trazado_2428" data-name="Trazado 2428" d="M67.6,72.675a23.662,23.662,0,0,0,.072-2.448c-.024-1.008-.744-1.393-1.392-1.177a3.877,3.877,0,0,0-2.208,2.593v1.68c.024,2.569.12,5.112.264,6.84H61c.144-1.488.241-4.128.241-6.767v-.77c0-2.255-.1-4.463-.241-5.9h3.337c-.049.48-.1,1.01-.144,1.56a3.683,3.683,0,0,1,2.976-1.847c2.184-.048,3.1,1.728,3.144,3.457a22.023,22.023,0,0,0,.192,2.783Z" fill="#fff"/>
        <path id="Trazado_2429" data-name="Trazado 2429" d="M77.395,80.645c-3.1,0-5.617-2.329-5.617-7.2,0-4.56,2.521-7.152,5.617-7.176,3.312,0,5.641,2.112,5.641,7.176,0,5.329-2.521,7.2-5.641,7.2m0-11.474c-1.488,0-2.568,1.057-2.568,4.32,0,3.241,1.272,4.273,2.568,4.321,1.32.024,2.544-1.08,2.544-4.321,0-3.263-1.056-4.32-2.544-4.32" fill="#fff"/>
        <path id="Trazado_2430" data-name="Trazado 2430" d="M88.915,80.6c-3.528,0-4.225-2.472-4.225-3.576V75.7h2.857v1.2a1.238,1.238,0,0,0,1.391,1.129c.889,0,1.321-.361,1.393-.985.048-.456-.024-.96-1.32-1.56l-1.752-.84a4.074,4.074,0,0,1-2.544-3.912c0-.265.023-.5.048-.769a4.188,4.188,0,0,1,4.152-3.84,3.794,3.794,0,0,1,3.84,4.08v1.176H90.091V70.2a1.215,1.215,0,0,0-1.248-1.272,1.374,1.374,0,0,0-1.368,1.2c-.312,1.7,1.608,2.185,2.712,2.689,2.712,1.224,3.121,2.712,3,4.224-.144,1.56-1.08,3.552-4.272,3.552" fill="#fff"/>
      </g>
    </g>
  </g>
</svg>
